<?xml version="1.0" standalone="no"?>
<!DOCTYPE svg PUBLIC "-//W3C//DTD SVG 20010904//EN"
 "http://www.w3.org/TR/2001/REC-SVG-20010904/DTD/svg10.dtd">
<svg version="1.0" xmlns="http://www.w3.org/2000/svg"
 width="566.000000pt" height="795.000000pt" viewBox="0 0 566.000000 795.000000"
 preserveAspectRatio="xMidYMid meet">

<g transform="translate(0.000000,795.000000) scale(0.100000,-0.100000)"
fill="#000000" stroke="none">
<path d="M0 6511 l0 -1440 63 4 c128 7 198 16 229 29 18 8 53 17 78 21 25 4
50 11 55 15 6 4 47 11 92 14 45 4 123 16 175 26 51 11 106 20 121 20 16 0 36
4 46 10 10 5 45 10 77 11 95 3 107 9 108 52 1 20 -2 37 -6 37 -5 0 -8 -13 -8
-30 0 -33 -11 -38 -31 -14 -11 14 -14 13 -25 -8 l-13 -23 -1 27 c0 14 5 28 10
30 18 6 -15 83 -36 84 -10 1 -25 2 -33 3 -8 1 -11 4 -8 8 9 8 -32 53 -49 53
-7 0 -20 7 -28 16 -10 10 -16 11 -16 4 0 -7 -9 -2 -21 11 -11 13 -18 18 -14
12 4 -8 0 -13 -10 -13 -9 0 -13 5 -10 10 3 6 -3 10 -15 10 -31 0 -98 74 -111
123 -14 53 -5 124 21 159 11 15 20 31 20 35 0 4 14 21 30 36 17 16 30 33 30
38 0 5 9 9 20 9 13 0 20 7 20 20 0 10 7 25 16 32 36 29 82 82 78 90 -3 4 8 10
23 14 15 4 35 13 45 21 9 8 18 11 21 6 3 -4 3 -48 1 -98 -3 -98 9 -243 24
-272 6 -10 15 -29 21 -43 6 -14 24 -47 40 -75 16 -27 30 -60 30 -72 1 -13 5
-23 9 -23 10 0 38 -93 53 -172 5 -32 18 -83 28 -114 11 -33 17 -71 14 -93 -12
-90 32 -192 129 -298 21 -24 38 -46 38 -51 0 -4 17 -26 38 -49 32 -35 41 -40
70 -36 44 7 46 14 17 57 l-25 37 25 11 c61 28 102 -39 50 -80 -14 -11 -25 -27
-25 -36 0 -14 7 -16 38 -10 20 4 43 11 50 17 27 21 11 -29 -18 -55 -16 -14
-27 -28 -24 -31 14 -14 -45 9 -79 30 -21 13 -43 23 -50 22 -27 -5 -64 25 -95
79 -58 103 -75 125 -86 115 -3 -4 -16 -1 -29 5 -12 6 -47 21 -77 33 -52 20
-64 21 -230 13 -170 -8 -383 -9 -600 -3 -72 2 -114 -1 -135 -10 -16 -8 -49
-15 -72 -16 -79 -4 -73 59 -73 -772 l0 -744 61 42 c135 91 317 169 434 185 51
7 171 43 286 87 35 14 96 35 134 47 39 12 148 60 242 106 95 46 179 84 187 84
8 0 17 4 21 9 3 5 22 15 43 21 20 6 60 20 88 31 50 20 53 23 74 82 12 34 39
95 60 135 21 40 34 75 29 78 -5 3 -9 14 -9 25 0 17 3 18 22 8 18 -9 24 -8 34
6 7 9 10 23 7 31 -7 19 11 18 27 -1 10 -12 5 -23 -29 -63 -22 -27 -63 -100
-91 -163 -28 -63 -60 -122 -71 -131 -11 -9 -50 -26 -87 -39 -37 -12 -89 -33
-117 -47 -27 -14 -72 -35 -100 -46 -27 -12 -88 -42 -135 -68 -83 -45 -143 -70
-265 -109 -33 -10 -107 -35 -165 -54 -58 -20 -144 -44 -192 -55 -156 -34 -241
-72 -407 -182 l-81 -53 0 -1652 0 -1653 24 0 c15 0 26 7 29 20 4 17 11 20 34
14 15 -3 33 -13 39 -20 9 -11 45 -14 154 -14 l142 0 -7 53 c-7 55 -20 130 -54
312 -11 61 -23 128 -26 150 -4 22 -28 117 -55 210 -27 94 -56 200 -64 235 -8
36 -22 90 -30 120 -18 65 -19 70 -7 70 5 0 17 -33 25 -72 9 -40 20 -84 25 -98
5 -14 19 -58 31 -97 13 -40 26 -73 30 -73 16 0 40 38 40 64 0 14 -13 56 -30
92 -24 54 -26 64 -12 62 10 -2 18 5 20 17 4 18 81 101 114 122 19 12 37 47 58
116 42 137 51 203 65 522 8 176 19 352 25 390 6 39 17 111 25 160 8 50 18 106
24 125 5 19 12 69 16 110 6 79 24 173 75 384 38 156 64 227 92 252 21 19 21
19 9 -3 -15 -30 -14 -33 13 -33 13 0 27 -6 29 -12 4 -10 6 -10 6 0 1 7 14 12
31 12 22 0 28 4 24 15 -4 8 -18 15 -33 15 -25 0 -61 29 -61 49 0 9 45 58 98
105 38 35 43 29 7 -10 -35 -38 -31 -48 5 -14 17 15 30 35 30 44 0 9 7 16 15
16 8 0 15 5 15 10 0 27 76 3 118 -37 7 -7 19 -13 26 -13 7 0 30 -13 52 -30 21
-16 56 -34 77 -40 40 -12 49 -29 17 -37 -21 -6 -28 -23 -8 -23 6 0 8 -3 5 -6
-3 -4 -2 -14 2 -23 7 -13 3 -16 -25 -17 -19 0 -35 5 -38 13 -3 7 -17 13 -31
13 -14 0 -28 7 -31 15 -4 8 -14 15 -24 15 -10 0 -21 8 -24 18 -3 9 -22 26 -41
36 -19 11 -35 25 -35 32 0 7 -13 19 -30 27 -27 14 -30 14 -45 -9 -18 -28 -19
-38 -3 -28 8 5 6 -2 -3 -16 -9 -14 -25 -25 -35 -25 -27 0 -23 -23 6 -39 14 -7
24 -18 22 -25 -1 -8 4 -10 16 -7 13 4 25 -3 40 -24 27 -36 27 -38 0 -42 -30
-4 -35 -34 -8 -41 11 -3 20 -10 20 -16 0 -19 -18 -12 -39 15 -20 25 -21 26
-21 5 0 -11 -4 -21 -10 -21 -5 0 -10 -6 -10 -14 0 -8 -6 -16 -13 -19 -12 -4
79 -97 95 -97 5 0 8 -9 8 -20 0 -11 6 -23 14 -26 8 -3 17 -16 20 -29 4 -16 11
-22 21 -19 8 4 15 1 15 -4 0 -6 10 -12 22 -14 17 -2 22 -10 23 -33 0 -24 6
-33 33 -44 19 -9 32 -22 32 -33 0 -10 7 -18 15 -18 9 0 18 -7 21 -15 3 -8 14
-17 25 -20 11 -4 24 -23 30 -46 7 -21 18 -38 25 -37 6 2 21 -7 32 -20 17 -19
29 -23 64 -20 24 2 42 8 41 13 -2 6 -7 10 -12 10 -14 0 -21 10 -26 33 -6 32
-38 71 -57 72 -14 0 -18 9 -18 36 0 34 -2 36 -27 30 -16 -3 -22 -3 -15 0 9 4
5 13 -13 32 -15 14 -29 39 -32 54 -3 15 -11 28 -18 28 -7 0 -15 7 -19 15 -4
11 -13 14 -30 9 -16 -4 -27 -1 -33 10 -5 8 -26 19 -47 23 -42 9 -62 33 -28 33
11 0 26 7 33 16 12 15 10 16 -19 10 -30 -7 -32 -6 -32 18 0 21 4 25 23 23 14
-1 22 3 22 13 0 9 -8 14 -21 13 -15 -2 -24 5 -28 19 -7 29 0 35 24 20 15 -9
22 -9 34 3 12 13 15 13 20 -1 3 -9 6 -24 6 -35 0 -20 15 -26 25 -9 3 5 12 10
20 10 15 0 101 -55 110 -71 4 -5 13 -9 21 -9 9 0 30 -16 48 -35 19 -19 43 -35
55 -35 11 0 21 -4 21 -9 0 -5 18 -17 40 -27 22 -10 40 -23 40 -29 0 -6 5 -16
11 -22 13 -13 39 6 39 29 0 8 4 18 9 23 6 6 -5 27 -31 54 -75 84 -93 112 -77
121 11 7 12 15 2 39 -11 29 -9 32 35 71 36 31 55 40 84 40 20 0 39 -3 41 -8 3
-4 20 -7 39 -6 18 1 49 -8 68 -20 19 -12 53 -30 75 -41 22 -10 47 -25 56 -32
10 -8 53 -13 122 -15 l107 -3 0 -36 c0 -21 -6 -40 -12 -42 -8 -4 -7 -6 3 -6
19 -1 33 -27 19 -36 -5 -3 -7 -19 -5 -35 3 -23 -3 -35 -22 -50 -27 -21 -63
-27 -63 -10 0 6 -7 10 -15 10 -8 0 -15 9 -15 20 0 27 -10 25 -37 -6 -24 -28
-22 -46 5 -43 29 3 42 -1 42 -11 0 -5 -11 -10 -24 -10 -14 0 -27 -4 -30 -9 -4
-5 25 -11 64 -13 77 -3 90 -1 90 14 0 6 11 23 25 40 14 16 25 35 25 42 0 7 13
19 29 27 28 13 103 96 167 182 17 23 38 43 47 45 25 5 155 -71 337 -198 36
-25 107 -60 121 -60 6 0 42 24 78 53 104 84 216 164 237 171 12 3 38 -2 62
-14 22 -11 46 -20 52 -20 5 0 10 -4 10 -10 0 -5 8 -10 18 -11 10 0 12 -3 5 -6
-22 -8 -14 -32 13 -39 36 -9 177 1 202 15 11 6 26 28 32 48 7 21 23 58 36 83
41 80 85 256 91 362 6 106 -3 189 -17 153 -4 -11 -6 -23 -4 -27 2 -3 6 -28 9
-56 4 -47 3 -49 -18 -45 -21 4 -22 1 -20 -39 l3 -43 -13 34 c-16 41 -84 120
-114 132 -14 5 -20 14 -17 27 3 10 -2 24 -10 31 -21 18 -20 32 1 24 14 -5 13
-2 -4 16 -18 19 -25 21 -42 12 -12 -7 -21 -16 -21 -21 0 -6 -5 -10 -10 -10 -6
0 -8 11 -4 25 4 15 1 32 -6 40 -8 9 -8 15 -2 15 6 0 12 -6 15 -12 2 -7 8 -9
13 -5 5 5 2 14 -6 20 -19 14 -14 51 5 43 34 -13 97 -27 102 -22 9 8 -7 44 -23
50 -8 3 -23 0 -34 -6 -25 -16 -30 -9 -36 42 -3 23 -9 53 -15 66 -12 33 -12 34
6 34 11 0 13 5 6 18 -16 31 -59 126 -82 180 -12 28 -29 52 -36 52 -10 0 -12
-7 -8 -20 16 -50 21 -124 12 -172 -5 -29 -9 -96 -8 -148 2 -156 -55 -333 -179
-551 -22 -39 -40 -73 -40 -76 0 -2 9 -2 20 2 83 26 94 4 23 -48 -93 -67 -268
-184 -285 -190 -14 -5 -18 -18 -18 -52 0 -25 -4 -45 -10 -45 -5 0 -10 13 -10
29 0 49 -16 76 -56 96 -21 11 -56 32 -78 48 -21 15 -43 27 -48 27 -5 0 -16 6
-23 14 -14 14 -62 15 -83 3 -15 -10 -65 11 -56 24 3 6 17 9 31 6 32 -6 42 19
17 39 -11 8 -36 24 -57 35 -21 11 -35 24 -32 29 4 6 31 10 60 10 49 0 56 3 72
28 23 37 75 92 87 92 5 0 27 12 47 26 26 18 35 31 32 44 -3 11 2 23 14 31 12
7 18 20 16 33 -3 13 8 38 26 63 26 37 40 45 103 64 134 39 328 139 328 169 0
4 -33 -6 -72 -22 -42 -17 -100 -32 -135 -35 l-63 -6 0 29 c0 24 18 46 100 124
89 85 106 107 144 185 24 50 42 93 40 96 -2 4 -19 10 -37 13 -19 4 -51 23 -75
46 -45 44 -76 52 -117 30 -23 -12 -30 -11 -71 8 -25 12 -49 20 -54 17 -13 -8
-70 16 -70 30 0 8 11 22 23 32 22 17 145 76 209 102 19 7 30 21 37 47 12 45 9
52 -35 70 -19 8 -34 21 -34 29 0 10 -10 15 -27 15 -25 -1 -26 -2 -10 -14 24
-19 21 -26 -11 -26 -16 0 -37 9 -47 20 -10 11 -22 20 -26 20 -22 0 -61 22 -53
30 5 5 54 19 109 31 84 18 107 20 143 10 23 -6 61 -11 85 -11 23 0 53 -7 66
-16 19 -14 25 -14 32 -3 19 30 2 102 -27 113 -7 3 -23 -4 -35 -15 -30 -26 -62
-33 -88 -20 -11 6 -58 12 -103 12 -185 1 -199 4 -159 38 10 9 55 47 100 85 44
38 83 77 87 88 3 10 16 26 30 34 13 9 24 25 24 35 0 29 -48 24 -81 -7 l-27
-25 -37 45 c-41 50 -54 55 -72 28 -10 -17 -155 -60 -167 -51 -2 2 -15 -6 -28
-19 -27 -24 -38 -20 -38 13 0 27 32 57 57 55 34 -4 43 0 43 18 0 10 -12 25
-26 32 -31 17 -53 6 -74 -38 -23 -48 -40 -41 -40 18 0 57 38 152 51 128 5 -8
21 -13 39 -12 38 3 42 6 34 28 -5 14 -9 15 -15 4 -5 -7 -9 -8 -9 -2 0 6 11 23
25 39 23 24 25 33 19 74 -4 25 -10 54 -15 63 -5 9 -9 42 -9 73 0 42 5 63 22
85 40 54 83 33 98 -49 12 -62 33 -91 67 -91 24 0 63 -18 75 -34 9 -13 129 -20
165 -11 26 6 26 8 10 19 -9 7 -27 11 -40 9 -12 -2 -44 5 -71 15 l-50 20 35 7
c50 10 76 31 84 65 9 39 32 37 55 -5 14 -25 23 -30 63 -32 56 -4 70 14 44 56
-17 29 -105 70 -149 71 -40 0 -36 31 7 64 56 43 47 56 -37 55 -40 0 -108 -4
-152 -8 -60 -5 -79 -4 -83 6 -3 7 -11 13 -19 13 -8 0 -14 10 -14 22 0 20 -1
21 -20 3 -11 -10 -20 -15 -20 -10 0 8 16 26 77 87 41 41 41 60 0 28 -28 -22
-61 -27 -55 -8 4 12 68 57 179 126 60 37 115 53 147 41 11 -4 32 -30 46 -58
14 -27 46 -78 70 -113 36 -51 58 -103 106 -247 33 -101 60 -193 60 -205 0 -11
5 -28 10 -36 8 -12 10 -10 10 8 0 13 4 20 10 17 6 -3 10 -15 10 -26 0 -10 -4
-19 -10 -19 -15 0 -12 -30 4 -36 8 -3 14 -15 14 -27 0 -12 8 -65 17 -117 12
-73 15 -136 12 -275 -7 -261 -36 -375 -144 -568 -18 -33 -33 -63 -33 -69 0 -6
34 -42 74 -82 73 -69 200 -245 212 -292 5 -19 21 -28 92 -49 47 -15 115 -42
151 -60 131 -66 223 -97 601 -205 41 -11 84 -25 95 -30 11 -5 61 -23 110 -40
256 -89 418 -202 540 -377 88 -125 254 -419 381 -673 l83 -165 0 2803 1 2802
-2830 0 -2830 0 0 -1439z m2565 879 c0 -22 -39 -19 -43 3 -3 15 1 18 20 15 12
-2 23 -10 23 -18z m-467 -32 c-2 -6 -10 -14 -16 -16 -7 -2 -10 2 -6 12 7 18
28 22 22 4z m563 -44 c41 -14 86 -28 102 -31 20 -4 27 -11 27 -28 0 -19 -4
-22 -21 -18 -24 7 -39 -11 -39 -47 0 -20 2 -22 10 -10 5 8 10 11 10 7 0 -5 6
-5 13 0 18 11 46 4 88 -24 21 -14 42 -22 48 -19 5 4 14 -2 20 -11 6 -10 11
-14 11 -10 0 5 5 5 12 1 6 -4 25 -8 41 -10 21 -1 43 -15 70 -43 46 -48 45 -76
-2 -66 -17 3 -32 2 -36 -4 -8 -14 -52 -14 -60 -1 -3 6 -22 10 -41 10 -19 0
-35 5 -35 10 -1 6 -3 15 -4 20 -1 6 -3 14 -4 20 -2 20 -63 42 -97 35 -19 -3
-40 -2 -47 2 -6 4 -30 13 -52 18 -31 8 -40 15 -38 30 3 34 -26 45 -109 43 -43
-1 -80 1 -83 4 -3 3 -3 17 1 32 5 20 12 26 35 26 15 0 45 11 65 25 36 24 35
29 -9 37 -26 4 -24 21 4 35 15 8 27 9 35 2 7 -5 45 -21 85 -35z m-748 -49 c-1
-14 5 -16 32 -13 27 3 35 0 39 -15 2 -11 10 -16 16 -12 6 3 25 2 43 -3 17 -6
49 -13 70 -17 31 -5 37 -10 37 -30 0 -13 6 -26 13 -28 6 -3 1 -6 -12 -6 -14
-1 -34 -10 -45 -20 -13 -12 -40 -21 -72 -23 -28 -2 -63 -12 -79 -22 -26 -17
-27 -17 -51 5 -13 12 -24 28 -24 36 0 18 47 27 76 14 31 -14 30 -14 47 3 19
19 11 72 -8 56 -7 -6 -46 -14 -87 -17 -67 -6 -72 -5 -59 10 18 22 -1 47 -38
48 -23 0 -24 1 -6 9 11 5 35 9 53 9 19 1 31 5 27 11 -8 14 4 32 18 27 7 -2 11
-12 10 -22z m462 -15 c3 -5 -1 -10 -10 -10 -9 0 -13 5 -10 10 3 6 8 10 10 10
2 0 7 -4 10 -10z m510 -10 c10 -11 24 -20 31 -20 14 0 30 -38 20 -47 -3 -3
-25 7 -48 23 -24 15 -44 29 -46 30 -5 3 10 34 18 34 4 0 15 -9 25 -20z m-555
0 c0 -5 -11 -10 -24 -10 -14 0 -28 5 -31 10 -4 6 7 10 24 10 17 0 31 -4 31
-10z m92 -59 c-1 -12 5 -29 13 -37 28 -28 17 -42 -37 -49 -29 -4 -60 -11 -69
-16 -11 -5 -28 -3 -48 7 -34 17 -33 34 3 34 30 0 39 10 24 27 -14 17 -8 23 50
43 57 21 68 19 64 -9z m-665 -31 c-27 -21 -117 -29 -117 -10 0 6 12 10 28 10
15 0 34 5 42 10 8 5 28 10 44 10 l29 0 -26 -20z m750 -46 c-3 -3 -12 -4 -19
-1 -8 3 -5 6 6 6 11 1 17 -2 13 -5z m47 -53 c3 -4 3 -10 0 -13 -7 -8 -54 3
-54 13 0 12 47 12 54 0z m-584 -11 c0 -5 -7 -10 -15 -10 -8 0 -15 5 -15 10 0
6 7 10 15 10 8 0 15 -4 15 -10z m734 -16 c28 -11 17 -24 -19 -24 -24 0 -35 5
-35 15 0 15 26 20 54 9z m-544 -32 c0 -14 -11 -21 -26 -15 -21 8 -17 23 6 23
11 0 20 -4 20 -8z m111 -2 c58 0 65 -15 12 -24 -21 -4 -50 -9 -64 -12 -20 -4
-28 0 -32 15 -6 24 2 34 21 26 7 -3 36 -5 63 -5z m916 -2 c4 -7 17 -13 28 -13
15 0 21 -8 23 -29 3 -20 0 -27 -10 -24 -7 3 -18 -2 -25 -11 -10 -14 -13 -14
-26 -1 -8 8 -24 32 -36 53 l-23 37 31 0 c16 0 34 -6 38 -12z m-1647 -8 c0 -5
-4 -10 -10 -10 -5 0 -10 5 -10 10 0 6 5 10 10 10 6 0 10 -4 10 -10z m-68 -71
c-25 -23 -41 -29 -65 -27 -47 4 -39 21 18 40 73 25 85 22 47 -13z m1988 1 c0
-19 -17 -36 -27 -26 -3 3 -2 17 1 31 7 28 26 25 26 -5z m-712 14 c19 -4 29
-11 26 -19 -3 -7 0 -16 5 -20 20 -12 1 -25 -36 -25 -38 0 -62 21 -63 53 0 18
17 21 68 11z m-98 -164 c8 -5 12 -12 8 -15 -9 -9 -59 6 -52 16 7 12 25 11 44
-1z m-1322 -26 c-9 -9 -21 -13 -28 -9 -9 6 -6 12 11 21 29 15 38 9 17 -12z
m1080 -13 c3 -8 -1 -12 -9 -9 -7 2 -15 10 -17 17 -3 8 1 12 9 9 7 -2 15 -10
17 -17z m678 10 c-5 -8 -56 -3 -56 5 0 2 14 4 31 4 16 0 28 -4 25 -9z m-756
-11 c0 -5 -5 -10 -11 -10 -5 0 -7 5 -4 10 3 6 8 10 11 10 2 0 4 -4 4 -10z
m489 -19 l24 -19 -44 2 c-25 0 -56 9 -70 18 l-24 17 45 0 c29 0 54 -6 69 -18z
m195 8 c42 -8 77 -7 126 1 52 9 74 9 90 0 21 -11 21 -12 -11 -36 -18 -13 -41
-24 -52 -24 -10 0 -32 -13 -47 -30 -45 -48 -98 -36 -87 19 6 28 4 31 -31 40
-20 5 -48 11 -61 13 -33 4 -40 28 -9 28 14 0 50 -5 82 -11z m-355 -13 c19 -22
-19 -29 -57 -10 -18 8 -32 17 -32 20 0 11 79 2 89 -10z m-1441 -63 c-2 -10
-10 -18 -18 -18 -8 0 -16 8 -18 18 -2 12 3 17 18 17 15 0 20 -5 18 -17z m1381
-40 c44 -23 48 -28 34 -41 -13 -14 -18 -14 -47 2 -17 9 -44 28 -61 41 l-30 25
28 0 c15 0 49 -12 76 -27z m986 -13 c8 -37 -8 -60 -40 -60 -19 0 -22 5 -21 30
1 26 28 59 48 60 3 0 9 -14 13 -30z m-700 10 c3 -6 -4 -10 -17 -10 -18 0 -20
2 -8 10 19 12 18 12 25 0z m-132 -19 c13 -13 -15 -19 -40 -10 -34 12 -29 33 5
24 15 -3 31 -10 35 -14z m449 -51 c5 -34 -13 -45 -56 -34 -34 8 -33 18 7 42
43 27 44 27 49 -8z m-172 -30 c0 -5 9 -10 19 -10 26 0 36 -17 21 -35 -14 -16
-5 -35 16 -35 8 0 14 -4 14 -10 0 -5 -22 -10 -50 -10 -27 0 -50 5 -50 10 0 6
5 10 10 10 6 0 10 8 10 18 0 15 -6 17 -34 14 -32 -4 -34 -2 -29 19 4 13 11 27
17 31 16 11 56 10 56 -2z m577 -37 c-15 -16 -17 -16 -17 -1 0 9 6 18 13 21 20
7 22 -2 4 -20z m-1018 -119 c-14 -18 -24 -11 -15 11 3 9 11 13 16 10 8 -5 7
-11 -1 -21z m971 -10 c12 -12 12 -14 -3 -14 -19 0 -77 27 -77 36 0 10 65 -8
80 -22z m-179 -109 c4 -16 16 -48 27 -69 21 -42 21 -44 -15 -143 -9 -24 -19
-43 -23 -43 -15 0 -19 14 -9 27 17 20 28 92 22 138 l-5 41 -52 -2 c-47 -2 -76
8 -76 26 0 4 12 5 26 2 20 -4 25 -2 19 8 -10 16 33 51 60 47 12 -1 22 -13 26
-32z m44 -574 c-3 -12 -11 -21 -16 -21 -10 0 -12 21 -3 45 10 24 27 2 19 -24z
m-1435 -15 c0 -3 -4 -8 -10 -11 -5 -3 -10 -1 -10 4 0 6 5 11 10 11 6 0 10 -2
10 -4z m375 -167 c5 -14 2 -25 -6 -30 -28 -18 -33 -11 -23 29 8 28 21 28 29 1z
m-175 -73 c-13 -13 -35 7 -25 24 5 8 11 8 21 -1 10 -8 12 -15 4 -23z m520 -31
c0 -8 -7 -15 -15 -15 -9 0 -12 6 -9 15 4 8 10 15 15 15 5 0 9 -7 9 -15z m-535
-10 c0 -5 -15 -11 -33 -12 -28 -1 -31 1 -21 13 13 16 54 15 54 -1z m505 -53
c0 -7 -4 -10 -10 -7 -5 3 -10 16 -10 28 0 18 2 19 10 7 5 -8 10 -21 10 -28z
m-176 -28 c21 -8 20 -49 -4 -137 -47 -172 -104 -269 -138 -235 -7 7 -12 17
-12 24 0 16 -38 40 -78 48 -17 4 -32 11 -32 15 0 4 -14 15 -31 25 -21 13 -28
23 -24 34 4 10 8 25 11 36 12 62 151 167 245 185 24 5 45 9 46 10 1 1 8 -2 17
-5z m-1302 -86 c-7 -7 -12 -8 -12 -2 0 14 12 26 19 19 2 -3 -1 -11 -7 -17z
m48 12 c0 -5 -7 -7 -15 -4 -8 4 -15 8 -15 10 0 2 7 4 15 4 8 0 15 -4 15 -10z
m81 -47 c18 -16 63 -93 56 -98 -1 -1 -21 -14 -44 -29 -25 -15 -45 -36 -49 -51
-15 -61 -34 -5 -34 103 0 50 4 68 18 78 23 18 28 17 53 -3z m654 -23 c4 -6 14
-8 24 -5 25 7 67 -42 75 -88 7 -40 47 -90 54 -69 8 24 18 11 19 -23 1 -19 -4
-35 -9 -35 -6 0 -8 -12 -5 -27 6 -30 -27 -138 -49 -164 -8 -8 -14 -22 -14 -30
0 -18 -29 -59 -30 -43 0 7 -9 14 -21 17 -17 5 -19 9 -10 26 14 25 4 51 -20 51
-13 0 -19 7 -19 21 0 12 -13 44 -30 71 -16 26 -30 52 -30 58 0 5 -8 15 -18 22
-10 7 -22 26 -26 41 -5 20 -11 27 -22 23 -9 -4 -18 3 -24 19 -5 14 -14 25 -20
25 -5 0 -10 9 -10 20 0 11 -4 20 -9 20 -11 0 -4 51 8 63 4 4 15 1 25 -6 14
-10 15 -18 7 -39 -7 -18 -7 -29 -1 -33 17 -10 30 5 30 34 0 18 8 34 23 44 25
18 93 22 102 7z m-495 -189 c13 -25 13 -68 0 -76 -17 -11 -50 15 -50 40 0 53
29 74 50 36z m650 -316 c0 -8 -4 -15 -10 -15 -5 0 -10 7 -10 15 0 8 5 15 10
15 6 0 10 -7 10 -15z m-45 -46 c8 -23 1 -34 -14 -24 -13 8 -15 45 -2 45 5 0
13 -9 16 -21z m30 11 c3 -5 1 -10 -4 -10 -6 0 -11 5 -11 10 0 6 2 10 4 10 3 0
8 -4 11 -10z m47 -91 c13 -8 3 -39 -12 -39 -5 0 -11 10 -12 23 0 12 -2 36 -3
52 -2 17 0 35 4 40 3 6 7 -8 9 -30 2 -22 8 -43 14 -46z m-662 12 c0 -6 -4 -13
-10 -16 -5 -3 -10 1 -10 9 0 9 5 16 10 16 6 0 10 -4 10 -9z m560 -22 c0 -5 -4
-9 -10 -9 -5 0 -10 7 -10 16 0 8 5 12 10 9 6 -3 10 -10 10 -16z m-540 -51 c0
-18 -2 -20 -9 -8 -6 8 -7 18 -5 22 9 14 14 9 14 -14z m80 -44 c0 -8 -5 -12
-10 -9 -6 4 -8 11 -5 16 9 14 15 11 15 -7z m-42 -561 c22 -47 63 -108 167
-248 87 -118 165 -204 239 -265 70 -57 75 -59 157 -70 46 -6 86 -16 87 -21 2
-5 8 -9 14 -9 6 0 8 7 4 15 -7 20 -1 19 32 -4 15 -10 40 -26 56 -36 25 -15 27
-19 12 -27 -10 -6 -14 -17 -11 -31 5 -17 -1 -25 -25 -36 -18 -7 -42 -10 -58
-6 -15 3 -49 10 -75 14 -27 4 -52 12 -55 18 -4 6 -18 14 -30 18 -13 4 -39 24
-59 45 -19 22 -49 47 -68 57 -18 10 -57 34 -86 54 -30 20 -94 50 -144 66 -145
48 -299 105 -310 113 -5 4 -23 11 -40 14 -63 14 -109 79 -77 110 96 91 179
163 198 174 17 9 24 21 24 42 0 32 9 60 19 60 3 0 16 -21 29 -47z m1842 -143
c0 -5 -2 -10 -4 -10 -3 0 -8 5 -11 10 -3 6 -1 10 4 10 6 0 11 -4 11 -10z m61
-32 c8 -3 9 -13 4 -28 -7 -22 -9 -22 -20 -7 -7 9 -21 17 -31 17 -20 0 -52 16
-44 22 23 18 56 24 67 12 7 -7 18 -14 24 -16z m-34 -54 c-3 -3 -12 -4 -19 -1
-8 3 -5 6 6 6 11 1 17 -2 13 -5z m-87 -38 c0 -8 -4 -18 -10 -21 -5 -3 -10 3
-10 14 0 12 5 21 10 21 6 0 10 -6 10 -14z m183 -52 c15 -4 27 -12 27 -20 0 -7
6 -19 13 -26 8 -7 22 -37 31 -65 14 -43 15 -55 4 -75 -26 -46 -59 -76 -79 -71
-10 3 -19 8 -19 12 0 4 -16 5 -35 3 -19 -2 -35 0 -35 6 0 5 -10 7 -22 5 -30
-5 -207 24 -223 37 -6 5 -15 7 -18 3 -4 -3 -7 -1 -7 6 0 8 7 11 15 7 11 -4 15
2 15 21 0 15 7 35 17 45 20 22 63 24 63 3 0 -8 5 -15 10 -15 6 0 10 -7 10 -16
0 -14 3 -14 15 -4 9 7 14 19 11 26 -8 20 17 65 34 61 8 -2 14 -9 12 -15 -1 -7
5 -15 13 -18 18 -7 10 -53 -13 -71 -9 -7 -13 -16 -9 -19 4 -4 12 -2 19 4 17
13 94 0 91 -16 -2 -7 1 -12 5 -12 8 0 12 41 15 149 0 21 -6 37 -16 43 -25 14
-21 31 6 24 12 -4 34 -9 50 -12z m-2306 -9 c17 -9 36 -22 43 -30 7 -8 22 -15
34 -15 11 -1 32 -7 46 -15 14 -8 35 -14 46 -15 12 0 32 -9 46 -19 13 -11 41
-22 61 -26 43 -8 87 -57 65 -72 -12 -7 -61 -13 -121 -15 -28 -1 -74 18 -92 38
-5 6 -54 28 -108 49 -109 42 -149 68 -141 90 5 12 9 12 29 -1 16 -10 25 -12
30 -4 3 5 -1 13 -9 16 -30 11 -14 28 30 33 6 0 25 -6 41 -14z m108 -279 c0
-13 -3 -27 -6 -30 -10 -11 -32 23 -25 39 9 24 32 18 31 -9z m57 -61 c14 -31 8
-38 -25 -26 -22 9 -26 20 -18 49 1 1 8 2 16 2 9 0 21 -11 27 -25z m-345 -20
c-15 -16 -22 -11 -13 10 3 9 10 13 16 10 6 -4 5 -11 -3 -20z m273 -419 c0 -3
-4 -8 -10 -11 -5 -3 -10 -1 -10 4 0 6 5 11 10 11 6 0 10 -2 10 -4z"/>
<path d="M2600 7215 c0 -8 5 -15 10 -15 6 0 10 7 10 15 0 8 -4 15 -10 15 -5 0
-10 -7 -10 -15z"/>
<path d="M2980 7051 c0 -5 5 -13 10 -16 6 -3 10 -2 10 4 0 5 -4 13 -10 16 -5
3 -10 2 -10 -4z"/>
<path d="M1510 3738 c0 -16 23 -51 80 -122 78 -98 55 -24 -29 92 -31 42 -51
54 -51 30z"/>
<path d="M2250 3201 c0 -5 9 -11 20 -14 24 -6 27 8 4 17 -21 8 -24 8 -24 -3z"/>
<path d="M3138 5118 c-7 -19 19 -105 44 -150 18 -31 36 -47 76 -65 29 -13 58
-21 63 -18 17 11 9 65 -16 115 -14 28 -29 50 -34 50 -5 0 -31 18 -59 40 -52
42 -68 48 -74 28z"/>
<path d="M3470 3963 c0 -12 -4 -25 -10 -28 -18 -11 -11 -32 15 -43 36 -16 41
2 15 53 -15 29 -20 34 -20 18z"/>
<path d="M3821 3766 c11 -11 99 -45 99 -38 0 8 -74 42 -92 42 -6 0 -9 -2 -7
-4z"/>
<path d="M3965 3700 c27 -12 43 -12 25 0 -8 5 -22 9 -30 9 -10 0 -8 -3 5 -9z"/>
<path d="M3541 3691 c-21 -13 4 -24 39 -16 17 4 30 11 30 16 0 11 -50 12 -69
0z"/>
<path d="M4080 3645 c0 -19 104 -93 181 -129 20 -9 65 -44 100 -77 112 -106
214 -180 235 -172 8 3 14 1 14 -5 0 -6 -6 -12 -12 -14 -17 -6 28 -90 134 -254
144 -220 150 -233 178 -339 10 -38 34 -131 54 -205 49 -187 66 -297 66 -420 0
-121 -24 -368 -41 -420 -18 -53 -73 -134 -112 -164 -46 -35 -57 -33 -22 4 l29
30 -21 22 c-11 13 -23 31 -26 40 -10 29 -55 34 -80 9 l-21 -21 47 -90 c59
-114 62 -161 16 -271 -22 -53 -33 -100 -39 -166 -7 -86 -15 -118 -71 -295 -13
-39 -19 -78 -16 -95 28 -134 29 -161 18 -301 -12 -148 -9 -172 26 -172 23 0
63 -51 63 -81 0 -63 -30 -59 446 -59 l434 0 0 128 c0 123 -1 129 -30 182 -16
30 -34 65 -40 78 -5 13 -21 38 -35 56 -33 44 -75 126 -75 148 0 23 70 74 132
96 38 13 48 21 48 39 0 28 3 28 -62 2 -240 -95 -403 -133 -563 -134 -151 0
-202 13 -233 62 -30 45 -23 52 16 13 l30 -30 119 0 c159 1 323 33 474 95 62
25 125 52 139 60 14 7 37 18 53 24 l27 11 0 108 0 108 -29 -2 c-27 -2 -30 1
-29 27 1 25 5 29 27 27 20 -2 27 2 29 19 4 25 -22 33 -31 11 -4 -8 -6 -7 -6 3
-1 9 8 19 19 22 16 4 20 14 20 51 0 43 -2 46 -19 36 -35 -18 -47 -10 -13 10
26 16 32 26 32 55 0 30 -4 36 -27 41 -16 4 -34 12 -41 17 -11 8 -21 3 -43 -22
-16 -19 -29 -42 -29 -52 0 -11 -5 -19 -10 -19 -13 0 -5 57 35 255 22 107 39
364 30 447 -4 40 -8 100 -9 133 0 33 -4 65 -7 70 -4 6 -12 35 -19 65 -7 30
-16 65 -21 78 -5 13 -9 32 -9 42 0 11 -5 20 -11 20 -6 0 -9 -7 -5 -15 3 -8 1
-15 -3 -15 -5 0 -12 6 -14 13 -3 6 -6 3 -6 -9 -1 -12 8 -25 22 -32 l22 -11
-21 -6 c-18 -6 -22 -17 -28 -73 -3 -37 -8 -80 -12 -97 -3 -16 -9 -57 -14 -90
-4 -33 -14 -82 -20 -110 -7 -27 -12 -57 -12 -65 0 -46 -79 -240 -98 -240 -10
0 -7 9 33 100 8 19 20 55 26 80 6 25 21 81 32 125 12 44 21 95 20 114 0 18 3
50 8 70 10 44 -3 248 -19 311 -7 25 -14 61 -15 80 -6 75 -19 124 -37 142 -10
10 -18 26 -18 35 0 9 -2 14 -5 11 -11 -11 -16 -354 -5 -382 8 -23 6 -32 -15
-60 -25 -33 -33 -80 -15 -91 14 -9 13 -55 -2 -55 -6 0 -20 -7 -30 -17 -25 -23
-32 -11 -18 31 13 41 18 252 8 407 -6 109 -38 214 -62 206 -16 -5 -20 -48 -5
-57 17 -11 19 -65 4 -140 -7 -36 -11 -92 -10 -125 2 -38 -2 -67 -11 -80 -13
-19 -14 -19 -14 -1 0 11 -6 27 -14 35 -8 9 -17 40 -21 68 -6 44 -4 54 9 59 14
5 13 10 -9 32 -14 13 -25 28 -25 33 0 4 -7 9 -16 11 -11 2 -17 18 -20 61 -2
32 -7 63 -10 69 -4 6 -8 25 -10 42 -1 17 -6 42 -9 56 -4 14 -10 45 -12 70 -3
25 -9 49 -14 54 -5 6 -9 22 -9 38 0 15 -11 53 -25 84 -14 31 -25 67 -25 80 0
14 -14 38 -34 57 -19 18 -36 42 -38 53 -3 14 -11 19 -33 17 -24 -1 -36 6 -60
38 -22 29 -36 38 -52 35 -28 -4 -47 17 -38 43 5 18 2 20 -29 18 -19 -2 -44
-11 -55 -21 -18 -16 -22 -17 -36 -3 -8 9 -12 23 -9 31 7 19 -12 22 -19 4 -4
-9 -8 -10 -14 -2 -4 6 -18 13 -31 17 -18 4 -22 2 -18 -8 3 -8 0 -17 -6 -21 -6
-4 -8 -3 -4 4 3 6 1 14 -5 17 -5 4 -8 14 -5 22 4 9 -1 17 -13 20 -13 3 -17 11
-14 24 4 14 0 19 -16 19 -13 0 -21 6 -21 18 0 12 -3 13 -8 5 -7 -10 -14 -10
-35 0 -32 14 -35 27 -7 27 11 0 20 5 20 11 0 6 -6 9 -14 6 -7 -3 -18 -1 -24 5
-7 7 -14 4 -21 -11 -13 -24 -46 -30 -38 -6 4 8 2 17 -3 20 -6 4 -10 1 -10 -4
0 -6 -7 -11 -15 -11 -8 0 -14 5 -12 11 1 6 -8 13 -21 14 -12 1 -35 14 -50 28
-16 15 -33 27 -40 27 -7 0 -12 5 -12 10 0 6 -7 10 -15 10 -8 0 -15 -2 -15 -5z
m504 -341 c9 -3 14 -10 11 -15 -7 -10 -35 0 -35 12 0 11 3 11 24 3z m236 -153
c0 -5 -7 -16 -15 -25 -21 -20 -19 -29 5 -21 18 6 20 2 20 -39 0 -25 -4 -46
-10 -46 -5 0 -10 8 -10 18 0 9 -7 30 -15 46 -22 42 -20 76 5 76 11 0 20 -4 20
-9z m53 -219 c21 -92 32 -182 23 -182 -9 0 -27 49 -32 88 -2 18 -12 45 -21 59
-10 15 -19 46 -20 70 -3 35 0 43 14 43 14 0 22 -17 36 -78z m164 -519 c-3 -10
-5 -2 -5 17 0 19 2 27 5 18 2 -10 2 -26 0 -35z m273 -818 c0 -3 -4 -13 -9 -23
-5 -9 -16 -33 -25 -52 -8 -19 -16 -28 -16 -20 0 22 32 100 41 100 5 0 9 -2 9
-5z m315 -285 c3 -5 1 -10 -4 -10 -6 0 -11 5 -11 10 0 6 2 10 4 10 3 0 8 -4
11 -10z m-45 -10 c0 -5 -4 -10 -10 -10 -5 0 -10 5 -10 10 0 6 5 10 10 10 6 0
10 -4 10 -10z"/>
<path d="M852 3260 c0 -14 2 -19 5 -12 2 6 2 18 0 25 -3 6 -5 1 -5 -13z"/>
<path d="M907 3143 c-10 -9 -9 -43 1 -43 12 0 32 23 32 37 0 14 -22 18 -33 6z"/>
<path d="M5036 3074 c-9 -24 -7 -28 9 -14 17 14 20 30 6 30 -5 0 -12 -7 -15
-16z"/>
<path d="M5040 3008 c0 -20 6 -65 14 -100 8 -35 20 -98 27 -142 7 -43 19 -86
26 -95 10 -13 12 -5 10 49 -1 36 -6 71 -10 78 -5 7 -4 12 2 12 6 0 11 9 11 20
0 11 -6 19 -12 18 -9 -2 -12 9 -10 36 2 25 -3 44 -13 56 -9 10 -14 27 -11 37
3 10 -3 29 -14 43 l-20 25 0 -37z"/>
<path d="M2056 2985 c-3 -8 -1 -15 4 -15 6 0 10 7 10 15 0 8 -2 15 -4 15 -2 0
-6 -7 -10 -15z"/>
<path d="M1714 2848 c3 -9 1 -18 -4 -20 -5 -2 -6 -9 -1 -16 5 -9 17 -11 34 -6
30 7 37 24 11 24 -9 0 -23 8 -31 18 -13 15 -14 15 -9 0z"/>
<path d="M1570 2806 c0 -13 7 -27 16 -30 8 -3 12 -10 9 -16 -3 -5 3 -10 14
-10 l21 0 -21 40 c-24 45 -39 52 -39 16z"/>
<path d="M5167 2813 c-4 -3 -7 -14 -7 -24 0 -12 6 -16 20 -12 11 3 20 9 20 13
0 12 -26 30 -33 23z"/>
<path d="M1910 2794 c0 -8 5 -12 10 -9 6 4 8 11 5 16 -9 14 -15 11 -15 -7z"/>
<path d="M1660 2780 c0 -5 12 -10 28 -10 21 0 24 2 12 10 -20 13 -40 13 -40 0z"/>
<path d="M1750 2779 c0 -5 5 -11 10 -14 6 -3 10 -12 10 -18 0 -8 -3 -8 -8 -2
-4 6 -19 12 -34 13 -22 1 -26 -2 -21 -16 3 -9 11 -23 16 -30 8 -10 7 -16 -3
-22 -11 -7 -6 -17 23 -45 35 -34 57 -39 57 -12 0 14 67 53 76 44 3 -3 0 -15
-6 -27 -9 -16 -14 -19 -20 -11 -10 18 -20 -11 -13 -39 5 -19 3 -20 -23 -15
-16 4 -34 8 -39 10 -6 1 -11 -14 -11 -36 -1 -40 17 -57 39 -39 7 5 27 21 44
36 18 14 32 30 30 36 -1 6 6 12 16 13 41 7 202 175 167 175 -6 0 -14 -9 -17
-20 -3 -13 -14 -20 -29 -20 -13 0 -24 -6 -24 -13 0 -8 -11 -20 -25 -27 -13 -7
-22 -17 -19 -22 3 -4 -2 -8 -10 -8 -14 0 -20 15 -18 45 1 6 -27 23 -61 40 -60
29 -107 39 -107 24z"/>
<path d="M1660 2750 c0 -6 7 -10 15 -10 8 0 15 2 15 4 0 2 -7 6 -15 10 -8 3
-15 1 -15 -4z"/>
<path d="M1960 2740 c0 -5 5 -10 10 -10 6 0 10 5 10 10 0 6 -4 10 -10 10 -5 0
-10 -4 -10 -10z"/>
<path d="M5110 2627 c0 -13 7 -32 15 -43 14 -18 14 -18 15 8 0 32 -9 58 -21
58 -5 0 -9 -10 -9 -23z"/>
<path d="M1439 2535 c-1 -3 -2 -10 -3 -15 0 -6 -7 -15 -15 -19 -7 -5 -10 -14
-7 -20 11 -17 26 -13 26 8 0 10 7 22 16 25 8 3 12 10 9 16 -6 10 -24 14 -26 5z"/>
<path d="M1205 2499 c-4 -6 -5 -12 -2 -15 7 -7 37 7 37 17 0 13 -27 11 -35 -2z"/>
<path d="M1088 2486 c-10 -7 -18 -18 -18 -24 0 -6 -8 -15 -17 -21 -16 -9 -17
-11 -2 -26 14 -14 19 -14 43 -1 24 12 26 15 10 19 -17 3 -16 4 1 3 13 -1 19
-7 17 -17 -1 -11 4 -16 15 -15 15 1 17 -6 15 -37 l-3 -37 56 4 c30 3 59 7 64
11 5 3 12 1 16 -5 4 -6 11 -8 16 -5 15 10 10 23 -8 27 -13 3 -9 6 10 10 21 4
27 2 25 -11 -2 -12 5 -16 35 -15 22 0 37 -4 37 -12 0 -6 7 -15 16 -18 21 -8
24 -8 24 4 0 6 -7 10 -15 10 -17 0 -20 16 -4 25 5 4 19 -1 29 -10 19 -17 20
-17 29 9 6 14 16 27 23 27 7 1 19 2 27 3 8 0 15 13 15 29 2 26 0 27 -52 27
-40 0 -53 -3 -49 -13 5 -14 -50 -44 -61 -32 -4 4 6 17 23 30 l29 24 -33 14
c-19 8 -42 12 -52 10 -29 -8 -22 -21 9 -16 26 3 26 3 5 -8 -13 -7 -23 -19 -23
-27 0 -11 -3 -12 -13 -4 -16 13 -59 4 -70 -15 -9 -14 -57 -18 -57 -4 0 5 -9
11 -20 14 -31 8 -24 24 15 31 59 11 42 30 -20 22 -30 -3 -55 -3 -54 1 5 34 -6
40 -33 19z m422 -66 c0 -5 -2 -10 -4 -10 -3 0 -8 5 -11 10 -3 6 -1 10 4 10 6
0 11 -4 11 -10z"/>
<path d="M1465 2481 c-3 -5 -1 -12 5 -16 5 -3 10 1 10 9 0 18 -6 21 -15 7z"/>
<path d="M5470 2427 c0 -15 4 -27 10 -27 5 0 9 9 7 20 -5 31 -17 36 -17 7z"/>
<path d="M1110 2370 c-13 -8 -12 -10 3 -10 9 0 17 5 17 10 0 12 -1 12 -20 0z"/>
<path d="M1327 2316 c-10 -27 18 -38 42 -17 l21 19 -22 6 c-32 8 -35 8 -41 -8z"/>
<path d="M1276 2311 c-4 -5 -2 -12 3 -15 5 -4 12 -2 15 3 4 5 2 12 -3 15 -5 4
-12 2 -15 -3z"/>
<path d="M3900 2224 c0 -8 5 -12 10 -9 6 3 10 10 10 16 0 5 -4 9 -10 9 -5 0
-10 -7 -10 -16z"/>
<path d="M4035 2220 c3 -5 14 -10 24 -10 30 0 43 -26 50 -97 l6 -68 6 75 c7
95 0 110 -52 110 -24 0 -38 -4 -34 -10z"/>
<path d="M3940 2176 c0 -10 8 -16 25 -16 14 0 28 -7 31 -15 5 -11 10 -12 24
-3 14 9 22 9 33 -1 13 -10 16 -8 22 9 4 12 5 24 2 26 -2 2 -34 7 -71 11 -57 5
-66 4 -66 -11z"/>
<path d="M4920 1830 c-1 -3 -4 -35 -7 -72 -4 -53 -2 -68 9 -68 23 0 41 17 32
31 -4 7 -13 36 -20 64 -7 27 -13 48 -14 45z"/>
<path d="M1004 1649 c-3 -6 -1 -16 5 -22 8 -8 11 -5 11 11 0 24 -5 28 -16 11z"/>
<path d="M4920 1650 c0 -5 5 -10 10 -10 6 0 10 5 10 10 0 6 -4 10 -10 10 -5 0
-10 -4 -10 -10z"/>
<path d="M5629 1584 c-12 -14 -11 -16 5 -13 11 2 21 10 24 17 5 17 -13 15 -29
-4z"/>
<path d="M2850 1540 c0 -5 5 -10 10 -10 6 0 10 5 10 10 0 6 -4 10 -10 10 -5 0
-10 -4 -10 -10z"/>
<path d="M5610 1510 c-11 -7 -12 -14 -4 -27 15 -26 3 -62 -26 -78 -19 -11 -21
-14 -7 -15 9 0 17 -4 17 -10 0 -23 27 -8 44 25 14 26 16 39 9 46 -7 7 -9 17
-6 25 8 21 -10 44 -27 34z"/>
<path d="M940 1460 c13 -24 35 -27 26 -4 -3 9 -6 18 -6 20 0 2 -7 4 -15 4 -13
0 -14 -4 -5 -20z"/>
<path d="M2866 1363 c-4 -8 -1 -34 5 -56 8 -31 8 -42 0 -45 -8 -3 -9 -8 -2
-16 6 -7 12 -27 13 -45 1 -18 6 -35 10 -37 5 -3 6 -10 3 -15 -4 -5 2 -9 12 -9
14 0 18 9 20 35 1 20 -2 33 -7 30 -5 -3 -11 -1 -15 5 -3 6 1 13 9 16 9 3 16
12 16 20 0 8 -6 11 -15 8 -11 -5 -13 -2 -9 10 4 10 0 18 -10 22 -9 3 -16 10
-16 15 0 11 27 12 33 2 2 -5 2 -2 0 5 -1 8 -3 21 -3 30 0 10 -9 23 -19 29 -16
10 -20 9 -25 -4z"/>
<path d="M3508 1323 c-4 -34 20 -132 39 -154 7 -8 13 -21 13 -27 0 -7 19 -24
43 -38 23 -15 46 -34 51 -43 5 -9 22 -29 38 -44 15 -16 34 -37 41 -47 43 -62
134 -152 214 -212 108 -81 177 -154 194 -206 15 -47 42 -87 91 -134 21 -20 38
-41 38 -45 0 -21 49 -55 69 -48 28 9 26 36 -5 66 -27 25 -64 93 -64 116 0 7 7
13 15 13 9 0 15 9 15 24 0 13 -7 29 -15 36 -8 7 -15 20 -15 29 0 9 -9 31 -20
49 -11 17 -17 32 -13 32 3 0 -1 8 -9 18 -9 9 -19 27 -22 39 -4 11 -13 24 -21
27 -8 3 -15 12 -15 19 0 8 -7 20 -15 27 -8 7 -15 21 -15 30 0 10 -3 20 -7 22
-7 3 -59 94 -62 108 -8 34 -15 50 -21 50 -4 0 -11 17 -15 38 -3 20 -17 60 -29
87 -13 28 -25 57 -28 65 -6 18 -79 24 -93 7 -15 -18 -66 -57 -76 -57 -5 0 -9
7 -9 15 0 23 -28 18 -41 -7 l-11 -21 -17 21 c-11 15 -23 20 -38 16 -19 -5 -23
-2 -23 16 0 22 -35 59 -57 60 -7 0 -13 7 -13 15 0 8 -5 15 -11 15 -6 0 -9 7
-6 15 7 17 -4 25 -43 31 -25 4 -29 2 -32 -23z"/>
<path d="M3890 1301 c0 -5 5 -13 10 -16 6 -3 10 -2 10 4 0 5 -4 13 -10 16 -5
3 -10 2 -10 -4z"/>
<path d="M1035 1240 c-3 -6 1 -7 9 -4 18 7 21 14 7 14 -6 0 -13 -4 -16 -10z"/>
<path d="M1102 1198 c-6 -6 -12 -18 -12 -26 0 -10 3 -10 16 2 8 9 14 21 12 26
-2 7 -8 6 -16 -2z"/>
<path d="M2910 1104 c8 -8 9 -14 3 -12 -6 2 -11 -1 -12 -7 -2 -21 24 -9 27 13
2 15 -2 22 -14 22 -14 0 -14 -3 -4 -16z"/>
<path d="M4577 1063 c-20 -20 10 -82 33 -68 14 9 13 48 -2 63 -14 14 -22 15
-31 5z"/>
<path d="M1156 1022 c-3 -6 -1 -14 5 -17 14 -9 20 -2 10 14 -6 8 -11 9 -15 3z"/>
<path d="M2930 936 c0 -8 5 -18 10 -21 6 -3 10 1 10 9 0 8 -4 18 -10 21 -5 3
-10 -1 -10 -9z"/>
<path d="M2220 844 c0 -8 5 -12 10 -9 6 4 8 11 5 16 -9 14 -15 11 -15 -7z"/>
<path d="M2920 814 c0 -9 31 -37 36 -32 9 9 -8 38 -22 38 -8 0 -14 -3 -14 -6z"/>
<path d="M1199 790 c-24 -62 -28 -84 -18 -96 6 -7 8 -17 6 -22 -3 -4 3 -13 13
-20 14 -8 21 -8 29 1 11 14 4 57 -10 57 -4 0 -9 21 -11 48 -2 26 -6 40 -9 32z"/>
<path d="M2100 679 c0 -19 -6 -41 -12 -47 -10 -10 -10 -15 2 -22 11 -7 12 -12
4 -17 -12 -8 -27 -62 -28 -98 -1 -11 -4 -25 -8 -30 -4 -6 -3 -17 3 -25 12 -21
11 -30 -4 -30 -16 0 -37 -42 -37 -74 0 -13 -7 -37 -15 -52 -18 -35 -19 -71 -2
-78 9 -3 7 -9 -5 -19 -10 -8 -18 -24 -18 -35 0 -11 -5 -24 -10 -27 -6 -3 -9
-33 -8 -66 l3 -59 182 0 183 0 -5 43 c-3 23 -6 63 -7 89 -2 36 -6 49 -20 54
-10 3 -18 9 -18 14 0 9 -32 17 -105 25 -89 11 -115 18 -115 30 0 7 5 15 11 17
6 2 12 19 14 38 14 139 24 193 38 202 9 6 9 12 0 27 -9 15 -8 31 3 76 15 56
15 59 -5 79 l-21 20 0 -35z"/>
<path d="M1160 514 c0 -8 5 -12 10 -9 6 4 8 11 5 16 -9 14 -15 11 -15 -7z"/>
<path d="M1200 491 c0 -28 -17 -35 -36 -16 -9 9 -19 13 -22 10 -4 -3 0 -10 8
-15 13 -8 12 -10 -2 -10 -10 0 -26 -8 -37 -19 -18 -18 -18 -19 20 -19 21 -1
44 -4 49 -7 19 -11 40 16 40 51 0 18 -4 36 -10 39 -5 3 -10 -3 -10 -14z"/>
<path d="M1251 494 c0 -11 3 -14 6 -6 3 7 2 16 -1 19 -3 4 -6 -2 -5 -13z"/>
<path d="M1250 441 c-14 -27 -13 -31 10 -31 15 0 20 7 20 25 0 30 -15 33 -30
6z"/>
<path d="M1070 400 c0 -5 9 -10 21 -10 11 0 17 5 14 10 -3 6 -13 10 -21 10 -8
0 -14 -4 -14 -10z"/>
<path d="M865 390 c-3 -5 1 -13 10 -16 22 -9 29 1 11 15 -10 8 -16 9 -21 1z"/>
<path d="M960 380 c0 -5 7 -10 15 -10 8 0 15 5 15 10 0 6 -7 10 -15 10 -8 0
-15 -4 -15 -10z"/>
<path d="M1340 370 c0 -5 5 -10 11 -10 5 0 7 5 4 10 -3 6 -8 10 -11 10 -2 0
-4 -4 -4 -10z"/>
<path d="M1385 360 c3 -5 8 -10 11 -10 2 0 4 5 4 10 0 6 -5 10 -11 10 -5 0 -7
-4 -4 -10z"/>
<path d="M1267 340 c-18 -18 -18 -18 4 -22 12 -2 24 -8 26 -14 2 -7 -16 -10
-52 -9 -53 2 -54 1 -49 -21 5 -18 2 -24 -10 -24 -9 0 -16 7 -16 15 0 14 -4 13
-32 -2 l-33 -17 30 -6 30 -5 -34 -24 c-28 -20 -31 -25 -17 -33 18 -10 66 16
66 36 0 7 31 17 75 25 41 7 75 17 75 22 0 5 10 9 23 9 21 1 21 1 -5 17 -14 9
-29 29 -32 45 -6 32 -23 35 -49 8z m1 -67 c-10 -2 -18 -9 -18 -15 0 -6 -3 -9
-6 -5 -10 10 6 27 24 26 15 -1 15 -2 0 -6z"/>
<path d="M1426 348 c-21 -12 -11 -28 17 -28 21 -1 57 -21 57 -32 0 -8 -95 -38
-119 -38 -12 0 -21 -4 -21 -10 0 -5 9 -10 20 -10 11 0 20 -4 20 -10 0 -5 -18
-10 -39 -10 -56 0 -57 -21 -3 -42 38 -14 47 -15 56 -4 6 7 20 19 31 26 15 8
15 10 3 6 -10 -3 -18 -1 -18 4 0 6 9 10 20 10 11 0 20 7 20 15 0 18 36 20 44
3 3 -9 8 -8 16 5 6 9 16 17 22 17 7 0 6 -5 -2 -15 -14 -17 -8 -19 53 -16 41 3
48 -8 17 -26 -12 -8 -21 -9 -25 -3 -3 6 -18 10 -31 10 -23 0 -25 -3 -22 -37 2
-28 -1 -38 -12 -38 -8 -1 -19 4 -23 10 -5 5 -7 -7 -5 -28 4 -32 1 -38 -18 -43
-30 -8 -40 -34 -14 -34 11 0 20 -7 20 -15 0 -8 7 -15 15 -15 8 0 15 9 15 20 0
17 7 20 40 20 22 0 40 5 40 11 0 6 10 9 23 7 17 -2 21 -9 19 -31 l-3 -27 96 0
c61 0 94 4 90 10 -3 5 1 25 10 43 12 26 13 40 6 60 -6 15 -9 47 -7 72 2 25 -1
45 -6 45 -4 0 -13 11 -18 25 -6 15 -17 25 -29 25 -11 0 -22 4 -26 10 -3 5 -34
9 -68 8 -78 -1 -167 11 -167 23 0 5 -6 9 -12 9 -7 0 -25 6 -39 14 -17 9 -32
10 -43 4z m174 -197 c0 -5 -7 -11 -15 -15 -9 -3 -15 0 -15 9 0 8 7 15 15 15 8
0 15 -4 15 -9z m40 -21 c0 -5 -7 -10 -16 -10 -8 0 -12 5 -9 10 3 6 10 10 16
10 5 0 9 -4 9 -10z"/>
<path d="M1082 316 c1 -10 8 -17 13 -17 15 1 12 24 -3 29 -9 3 -13 -2 -10 -12z"/>
<path d="M1165 169 c-9 -29 2 -36 20 -13 18 24 19 34 1 34 -8 0 -18 -9 -21
-21z"/>
<path d="M463 172 c-14 -9 -20 -62 -10 -80 5 -6 4 -12 -2 -12 -6 0 -11 -18
-11 -39 0 -40 0 -40 40 -39 l40 0 -6 42 c-7 55 -25 126 -33 131 -4 2 -12 1
-18 -3z"/>
<path d="M1221 157 c7 -16 17 -23 26 -20 21 8 11 38 -15 41 -20 3 -21 1 -11
-21z"/>
<path d="M1030 160 c0 -5 7 -10 16 -10 8 0 12 5 9 10 -3 6 -10 10 -16 10 -5 0
-9 -4 -9 -10z"/>
<path d="M1300 140 c0 -5 7 -10 15 -10 8 0 15 -4 15 -9 0 -11 -25 -32 -36 -30
-5 1 -18 1 -29 0 -19 -2 -19 -2 -2 -12 14 -8 15 -14 7 -24 -15 -18 15 -28 41
-14 16 8 18 13 8 25 -9 12 -6 14 19 14 38 0 65 36 35 46 -10 3 -26 10 -35 15
-23 12 -38 12 -38 -1z"/>
<path d="M1195 120 c-3 -5 1 -10 10 -10 9 0 13 5 10 10 -3 6 -8 10 -10 10 -2
0 -7 -4 -10 -10z"/>
<path d="M1065 90 c-3 -5 3 -10 14 -10 11 0 23 5 26 10 3 6 -3 10 -14 10 -11
0 -23 -4 -26 -10z"/>
<path d="M1426 93 c-4 -5 -26 -15 -49 -25 -41 -16 -42 -16 -17 -26 21 -9 29
-6 54 19 15 17 26 32 24 35 -3 2 -8 1 -12 -3z"/>
<path d="M977 84 c-11 -11 3 -24 18 -18 8 4 12 10 9 15 -6 11 -18 12 -27 3z"/>
<path d="M1182 53 c2 -12 14 -19 36 -21 38 -4 42 10 7 26 -36 16 -47 15 -43
-5z"/>
<path d="M1587 33 c-14 -4 -16 -8 -6 -19 17 -20 39 -17 39 6 0 20 -2 21 -33
13z"/>
<path d="M1344 15 c-19 -14 -18 -14 4 -15 13 0 22 6 22 15 0 19 -1 19 -26 0z"/>
<path d="M1125 10 c-3 -5 -1 -10 4 -10 6 0 11 5 11 10 0 6 -2 10 -4 10 -3 0
-8 -4 -11 -10z"/>
</g>
</svg>
